<?xml version="1.0" standalone="no"?><!DOCTYPE svg PUBLIC "-//W3C//DTD SVG 1.1//EN" "http://www.w3.org/Graphics/SVG/1.1/DTD/svg11.dtd"><svg t="1613280209273" class="icon" viewBox="0 0 1024 1024" version="1.1" xmlns="http://www.w3.org/2000/svg" p-id="19414" xmlns:xlink="http://www.w3.org/1999/xlink" width="32" height="32"><defs><style type="text/css"></style></defs><path d="M921.6 0a102.4 102.4 0 0 0-102.4 102.4v819.2a102.4 102.4 0 0 0 204.8 0V102.4A102.4 102.4 0 0 0 921.6 0zM204.8 230.4a102.4 102.4 0 0 0-204.8 0v691.2a102.4 102.4 0 0 0 204.8 0V230.4z m409.6 268.8a102.4 102.4 0 0 0-204.8 0v422.4a102.4 102.4 0 0 0 204.8 0V499.2z" p-id="19415" fill="#4a6eff"></path></svg>