<?xml version="1.0" standalone="no"?><!DOCTYPE svg PUBLIC "-//W3C//DTD SVG 1.1//EN" "http://www.w3.org/Graphics/SVG/1.1/DTD/svg11.dtd"><svg t="1613280666275" class="icon" viewBox="0 0 1024 1024" version="1.1" xmlns="http://www.w3.org/2000/svg" p-id="20460" xmlns:xlink="http://www.w3.org/1999/xlink" width="32" height="32"><defs><style type="text/css"></style></defs><path d="M853.526397 384.222825c-12.574387-12.356422-36.359093-9.016351-53.121871 7.458879l-288.37792 283.368836L223.64357 391.681704c-16.762779-16.476253-40.547485-19.815301-53.121871-7.458879-12.574387 12.356422-9.175987 35.726689 7.586792 52.197826l303.556621 298.283524c1.723248 1.696642 3.740184 2.638083 5.592368 4.051269 0.781806 1.077541 1.027399 2.452865 1.994424 3.40761 5.073552 4.981455 12.159948 6.759961 19.686365 6.801916 1.062192 0.173962 2.034333 0.075725 3.083222 0.160659 1.048889-0.084934 2.02103 0.013303 3.083222-0.160659 7.52744-0.041956 14.608719-1.820462 19.682271-6.801916 0.967024-0.950651 1.216711-2.333138 1.994424-3.411703 1.852184-1.409093 3.869121-2.354628 5.592368-4.043083l303.556621-298.283524c16.766872-16.476253 20.161179-39.84652 7.590885-52.202942L853.526397 384.221802zM853.526397 384.222825" p-id="20461" fill="#b8b8b8"></path></svg>