<?xml version="1.0" standalone="no"?><!DOCTYPE svg PUBLIC "-//W3C//DTD SVG 1.1//EN" "http://www.w3.org/Graphics/SVG/1.1/DTD/svg11.dtd"><svg t="1613279409846" class="icon" viewBox="0 0 1024 1024" version="1.1" xmlns="http://www.w3.org/2000/svg" p-id="16117" xmlns:xlink="http://www.w3.org/1999/xlink" width="32" height="32"><defs><style type="text/css"></style></defs><path d="M604.774 44.1a34.133 34.133 0 0 1 48.265 0L814.558 206.03a34.133 34.133 0 0 1 0.683 47.513l-459.162 486.81a34.133 34.133 0 0 1-18.227 10.103L104.516 796.74a34.133 34.133 0 0 1-39.8-41.642l54.205-219.205a34.133 34.133 0 0 1 9.01-15.974L604.844 44.1zM182.886 561.562l-38.98 157.764 169.984-33.724L742.878 230.81 628.873 116.53 182.886 561.493z" p-id="16118" fill="#ffffff"></path><path d="M650.581 328.158L530.978 214.153l-48.264 47.854L603.75 377.856zM84.651 981.06h849.92a34.133 34.133 0 0 0 0-68.266H84.65a34.133 34.133 0 1 0 0 68.266z" p-id="16119" fill="#ffffff"></path></svg>