<?xml version="1.0" standalone="no"?><!DOCTYPE svg PUBLIC "-//W3C//DTD SVG 1.1//EN" "http://www.w3.org/Graphics/SVG/1.1/DTD/svg11.dtd"><svg t="1613280869130" class="icon" viewBox="0 0 1024 1024" version="1.1" xmlns="http://www.w3.org/2000/svg" p-id="21361" xmlns:xlink="http://www.w3.org/1999/xlink" width="32" height="32"><defs><style type="text/css"></style></defs><path d="M421.925926 170.666667c33.943704 0 66.844444 6.637037 97.754074 19.721481 29.961481 12.61037 56.794074 30.814815 79.834074 53.854815s41.244444 49.967407 53.854815 79.834074C666.548148 355.081481 673.185185 387.982222 673.185185 421.925926s-6.637037 66.844444-19.721481 97.754074c-12.61037 29.961481-30.814815 56.794074-53.854815 79.834074s-49.967407 41.244444-79.834074 53.854815C488.77037 666.548148 455.86963 673.185185 421.925926 673.185185s-66.844444-6.637037-97.754074-19.721481c-29.961481-12.61037-56.794074-30.814815-79.834074-53.854815-23.134815-23.134815-41.244444-49.967407-53.854815-79.834074C177.303704 488.77037 170.666667 455.86963 170.666667 421.925926s6.637037-66.844444 19.721481-97.754074c12.61037-29.961481 30.814815-56.794074 53.854815-79.834074 23.134815-23.134815 49.967407-41.244444 79.834074-53.854815C355.081481 177.303704 387.982222 170.666667 421.925926 170.666667m0-42.666667c-162.322963 0-293.925926 131.602963-293.925926 293.925926s131.602963 293.925926 293.925926 293.925926 293.925926-131.602963 293.925926-293.925926-131.602963-293.925926-293.925926-293.925926zM874.951111 896.284444c-5.499259 0-10.903704-2.085926-15.075555-6.257777L614.968889 645.12c-8.343704-8.343704-8.343704-21.807407 0-30.151111s21.807407-8.343704 30.151111 0l244.906667 244.906667c8.343704 8.343704 8.343704 21.807407 0 30.151111a21.333333 21.333333 0 0 1-15.075556 6.257777z" p-id="21362" fill="#b8b8b8"></path></svg>